<svg width="87" height="20" viewBox="0 0 87 20" fill="none" xmlns="http://www.w3.org/2000/svg">
<path d="M77.4578 2.96957H76.42L70.3658 19.8043H66.8486L73.9983 0.196463H79.8218L87.0003 19.8043H83.4831L77.4578 2.96957ZM70.7694 12.2693H82.5318V15.0144H70.7694V12.2693Z" fill="black"/>
<path d="M54.2166 14.4258C54.3319 14.9486 54.553 15.4248 54.8797 15.8543C55.2256 16.2652 55.6773 16.592 56.2347 16.8347C56.8112 17.0775 57.4935 17.1989 58.2815 17.1989C59.4924 17.1989 60.3957 16.9281 60.9915 16.3866C61.5873 15.8263 61.8852 15.1727 61.8852 14.4258C61.8852 13.8095 61.693 13.296 61.3086 12.8852C60.9434 12.4743 60.4245 12.1289 59.7518 11.8487C59.0791 11.55 58.3104 11.2698 57.4455 11.0084C56.6575 10.7843 55.8983 10.5509 55.168 10.3081C54.4376 10.0467 53.7746 9.72923 53.1788 9.35574C52.6022 8.96359 52.1409 8.46872 51.7949 7.87115C51.449 7.2549 51.2856 6.48926 51.3049 5.57423C51.3049 4.37909 51.5931 3.37068 52.1697 2.54902C52.7463 1.70868 53.5535 1.07376 54.5914 0.644258C55.6292 0.214753 56.8209 0 58.1662 0C59.3002 0 60.3188 0.15873 61.2221 0.476189C62.1447 0.774976 62.9231 1.22316 63.5573 1.82073C64.1915 2.39963 64.6624 3.11858 64.9699 3.97759L61.8275 4.98599C61.7122 4.57516 61.4816 4.21102 61.1356 3.89356C60.7897 3.55742 60.3573 3.29598 59.8383 3.10924C59.3386 2.9225 58.7909 2.8198 58.1951 2.80112C57.5416 2.78245 56.9554 2.87582 56.4365 3.08123C55.9368 3.28665 55.5331 3.58543 55.2256 3.97759C54.9181 4.35107 54.7644 4.78992 54.7644 5.29412C54.7644 5.87302 54.9373 6.33053 55.2833 6.66667C55.6292 6.98413 56.0809 7.2549 56.6383 7.47899C57.2149 7.68441 57.8491 7.89916 58.541 8.12325C59.3482 8.34734 60.1458 8.60878 60.9338 8.90756C61.7411 9.18768 62.4714 9.55182 63.1249 10C63.7975 10.4295 64.3357 10.9804 64.7393 11.6527C65.1429 12.3249 65.3447 13.1653 65.3447 14.1737C65.3447 15.2568 65.0853 16.2372 64.5663 17.1148C64.0666 17.9925 63.2978 18.6928 62.26 19.2157C61.2221 19.7386 59.9344 20 58.3969 20C57.1476 20 56.004 19.8226 54.9662 19.4678C53.9475 19.0943 53.0923 18.5714 52.4004 17.8992C51.7277 17.2082 51.2856 16.3959 51.0742 15.4622L54.2166 14.4258Z" fill="black"/>
<path d="M37.409 14.4258C37.5243 14.9486 37.7453 15.4248 38.0721 15.8543C38.418 16.2652 38.8697 16.592 39.427 16.8347C40.0036 17.0775 40.6859 17.1989 41.4739 17.1989C42.6848 17.1989 43.5881 16.9281 44.1839 16.3866C44.7797 15.8263 45.0776 15.1727 45.0776 14.4258C45.0776 13.8095 44.8854 13.296 44.501 12.8852C44.1358 12.4743 43.6169 12.1289 42.9442 11.8487C42.2715 11.55 41.5028 11.2698 40.6379 11.0084C39.8499 10.7843 39.0907 10.5509 38.3604 10.3081C37.63 10.0467 36.9669 9.72923 36.3711 9.35574C35.7946 8.96359 35.3333 8.46872 34.9873 7.87115C34.6414 7.2549 34.478 6.48926 34.4972 5.57423C34.4972 4.37909 34.7855 3.37068 35.3621 2.54902C35.9387 1.70868 36.7459 1.07376 37.7838 0.644258C38.8216 0.214753 40.0132 0 41.3586 0C42.4926 0 43.5112 0.15873 44.4145 0.476189C45.337 0.774976 46.1154 1.22316 46.7497 1.82073C47.3839 2.39963 47.8548 3.11858 48.1623 3.97759L45.0199 4.98599C44.9046 4.57516 44.674 4.21102 44.328 3.89356C43.9821 3.55742 43.5496 3.29598 43.0307 3.10924C42.531 2.9225 41.9832 2.8198 41.3874 2.80112C40.734 2.78245 40.1478 2.87582 39.6288 3.08123C39.1291 3.28665 38.7255 3.58543 38.418 3.97759C38.1105 4.35107 37.9567 4.78992 37.9567 5.29412C37.9567 5.87302 38.1297 6.33053 38.4757 6.66667C38.8216 6.98413 39.2733 7.2549 39.8307 7.47899C40.4072 7.68441 41.0415 7.89916 41.7334 8.12325C42.5406 8.34734 43.3382 8.60878 44.1262 8.90756C44.9334 9.18768 45.6638 9.55182 46.3172 10C46.9899 10.4295 47.5281 10.9804 47.9317 11.6527C48.3353 12.3249 48.5371 13.1653 48.5371 14.1737C48.5371 15.2568 48.2776 16.2372 47.7587 17.1148C47.259 17.9925 46.4902 18.6928 45.4524 19.2157C44.4145 19.7386 43.1268 20 41.5892 20C40.34 20 39.1964 19.8226 38.1586 19.4678C37.1399 19.0943 36.2847 18.5714 35.5927 17.8992C34.9201 17.2082 34.478 16.3959 34.2666 15.4622L37.409 14.4258Z" fill="black"/>
<path d="M30.5731 4.00689H18.9273L17.4626 8.09467H32.3994L30.5731 11.5664H18.1469L16.603 16.4554H32.3994L30.5731 19.8043H13.1592L17.2076 8.80646L20.2926 0.196463H32.3994L30.5731 4.00689Z" fill="black"/>
<path d="M15.3948 0.196463H19.0273L11.5029 19.8043H7.49561L0 0.196463H3.63249L9.51366 16.415L15.3948 0.196463Z" fill="black"/>
</svg>
